<?xml version="1.0" encoding="UTF-8"?>
<svg xmlns="http://www.w3.org/2000/svg" xmlns:xlink="http://www.w3.org/1999/xlink" width="2326" height="2326" viewBox="0 0 2326 2326">
<path fill-rule="nonzero" fill="rgb(0%, 0%, 0%)" fill-opacity="1" d="M 1146.480469 0.890625 C 996.894531 8.988281 895.097656 22.761719 776.417969 51.101562 C 642.15625 82.941406 519.0625 128.828125 398.046875 191.980469 C 237.035156 275.648438 127.1875 364.179688 64.601562 460.53125 C 4.613281 552.839844 -12.789062 645.410156 10.324219 746.089844 C 17.597656 777.929688 30.839844 812.210938 36.292969 813.558594 C 38.890625 814.371094 43.304688 821.660156 47.199219 831.371094 C 50.578125 840.820312 54.992188 848.109375 57.070312 848.109375 C 59.148438 848.109375 70.832031 832.988281 83.296875 814.371094 C 271.574219 535.570312 538.28125 341.238281 840.820312 262.699219 C 1030.398438 213.570312 1241.53125 211.148438 1433.441406 255.949219 C 1477.851562 266.480469 1557.828125 294 1598.339844 312.898438 C 1707.679688 363.910156 1799.871094 434.078125 1873.101562 522.609375 C 1949.449219 614.910156 1994.640625 736.101562 2009.960938 888.589844 C 2013.589844 926.109375 2013.589844 1032.449219 2009.960938 1074.820312 C 1987.109375 1335.542969 1884.789062 1551.191406 1697.03125 1734.722656 C 1472.128906 1954.152344 1190.371094 2064 852.246094 2064 C 717.988281 2064 645.273438 2047.804688 620.082031 2012.71875 C 610.992188 2000.035156 608.65625 1963.597656 613.589844 1914.207031 C 623.457031 1815.421875 636.960938 1739.582031 751.746094 1140.941406 C 803.683594 869.96875 849.390625 627.871094 853.285156 603.039062 C 860.039062 561.75 860.296875 555.808594 857.441406 535.839844 C 854.585938 514.238281 850.429688 503.988281 831.472656 468.359375 C 813.292969 434.621094 794.597656 421.398438 761.355469 418.429688 C 726.039062 415.460938 658.777344 431.109375 564.769531 464.578125 C 488.9375 491.570312 493.09375 488.871094 505.296875 505.339844 C 514.386719 517.75 526.332031 550.410156 528.410156 568.761719 C 530.488281 586.03125 526.332031 634.890625 519.0625 679.421875 C 513.347656 714.238281 495.691406 808.160156 411.550781 1246.210938 C 281.183594 1926.082031 277.027344 1949.832031 276.769531 2039.707031 C 276.507812 2110.152344 284.300781 2139.03125 319.359375 2196.519531 C 347.144531 2242.402344 371.816406 2266.695312 411.550781 2287.207031 C 467.644531 2316.355469 538.019531 2327.691406 647.871094 2324.992188 C 864.195312 2319.324219 1084.410156 2271.28125 1317.878906 2177.898438 C 1579.390625 2073.714844 1779.609375 1944.703125 1951.269531 1769.808594 C 2155.128906 1561.988281 2275.621094 1333.65625 2313.539062 1082.921875 C 2324.179688 1011.121094 2325.480469 992.769531 2325.480469 900.738281 C 2325.21875 789.808594 2320.550781 749.058594 2297.960938 660.53125 C 2275.621094 573.351562 2222.128906 461.878906 2163.429688 380.371094 C 2134.609375 340.160156 2070.730469 272.410156 2031.511719 240.03125 C 1865.050781 103.191406 1652.878906 27.070312 1375.011719 4.679688 C 1340.210938 1.710938 1178.679688 -0.71875 1146.480469 0.890625 Z M 1146.480469 0.890625 "/>
</svg>
